# xmcd
#
# Track frame offsets:
#  182
#  10347
#  21215
#  30360
#  41640
#  51762
#  61032
#  72087
#  82007
#  93687
#  103992
#  113877
#  125430
#  138702
#  150592
#  162142
#
# Disc length: 2282 seconds
#
# Revision: 0
# Processed by: cddbd v1.4PL0 Copyright (c) Steve Scherf et al.
# Submitted via: AltoMP3_Maker 3.0
#
DISCID=d208e810
DTITLE=The Drifters - The Great Drifters
DYEAR=1900
DGENRE=
TTITLE0=There Goes My Baby
TTITLE1=Dance With Me
TTITLE2=(If You Cry)True Love,True Love
TTITLE3=This Magic Moment
TTITLE4=Save The Last Dance For Me
TTITLE5=I Count The Tears
TTITLE6=Some Kind Of Wonderful
TTITLE7=Please Stay
TTITLE8=Sweets For My Sweet
TTITLE9=When My Little Girl Is Smiling
TTITLE10=Up On The Roof
TTITLE11=Whie Christmas
TTITLE12=On Broadway
TTITLE13=I'll Take You Home
TTITLE14=Under The Board Walk
TTITLE15=Saturday Night At The Movies
EXTD=
EXTT0=
EXTT1=
EXTT2=
EXTT3=
EXTT4=
EXTT5=
EXTT6=
EXTT7=
EXTT8=
EXTT9=
EXTT10=
EXTT11=
EXTT12=
EXTT13=
EXTT14=
EXTT15=
PLAYORDER=
